<?xml version="1.0" standalone="no"?>
<!DOCTYPE svg PUBLIC "-//W3C//DTD SVG 20010904//EN"
 "http://www.w3.org/TR/2001/REC-SVG-20010904/DTD/svg10.dtd">
<svg version="1.0" xmlns="http://www.w3.org/2000/svg"
 width="60.000000pt" height="60.000000pt" viewBox="0 0 60.000000 60.000000"
 preserveAspectRatio="xMidYMid meet">

<g transform="translate(0.000000,60.000000) scale(0.100000,-0.100000)"
fill="#000000" stroke="none">
<path d="M172 523 c-10 -16 -54 -92 -97 -171 -90 -165 -90 -172 6 -172 l59 0
0 -58 c0 -67 11 -82 60 -82 49 0 60 15 60 81 0 55 -1 57 -30 63 -16 3 -30 11
-30 18 -1 7 21 54 47 105 l48 92 -37 75 c-21 42 -44 76 -52 76 -8 0 -23 -12
-34 -27z"/>
<path d="M342 474 l-37 -75 48 -92 c26 -51 48 -98 47 -105 0 -7 -13 -15 -30
-19 -29 -5 -30 -7 -30 -62 0 -66 11 -81 60 -81 49 0 60 15 60 82 l0 58 59 0
c96 0 96 7 6 172 -92 168 -111 198 -131 198 -8 0 -31 -34 -52 -76z"/>
</g>
</svg>
