<?xml version="1.0" standalone="no"?>
<!DOCTYPE svg PUBLIC "-//W3C//DTD SVG 20010904//EN"
 "http://www.w3.org/TR/2001/REC-SVG-20010904/DTD/svg10.dtd">
<svg version="1.0" xmlns="http://www.w3.org/2000/svg"
 width="60.000000pt" height="60.000000pt" viewBox="0 0 60.000000 60.000000"
 preserveAspectRatio="xMidYMid meet">

<g transform="translate(0.000000,60.000000) scale(0.100000,-0.100000)"
fill="#000000" stroke="none">
<path d="M168 585 c-74 -24 -124 -101 -85 -133 9 -8 24 -3 56 19 104 70 201
61 264 -22 62 -84 24 -226 -83 -307 -39 -30 -45 -32 -56 -18 -14 20 -50 160
-60 234 -7 58 -33 100 -53 88 -19 -12 6 -204 40 -303 17 -51 17 -53 0 -53 -10
0 -25 -7 -32 -16 -12 -14 -9 -20 20 -46 30 -27 40 -30 80 -26 62 6 117 34 169
86 64 63 86 120 87 217 0 94 -22 150 -86 213 -73 73 -166 97 -261 67z"/>
</g>
</svg>
